<svg xmlns="http://www.w3.org/2000/svg" width="28" height="28" viewBox="0 0 28 28">
    <defs>
        <clipPath id="hyzjsscuta">
            <path data-name="矩形 1223" style="fill:#fff;stroke:#707070" d="M0 0h28v28H0z"/>
        </clipPath>
        <clipPath id="8003vpddrb">
            <path data-name="矩形 1222" style="fill:none" d="M0 0h23.349v22.424H0z"/>
        </clipPath>
    </defs>
    <g data-name="蒙版组 14" style="clip-path:url(#hyzjsscuta)">
        <g data-name="组 1941">
            <g data-name="组 1940" style="clip-path:url(#8003vpddrb)" transform="translate(2.625 3.5)">
                <path data-name="路径 2228" d="M2.345 11.962a.6.6 0 0 1-.6-.6V1.351a1.2 1.2 0 0 1 1.2-1.2H18.62a1.2 1.2 0 0 1 1.2 1.2v2.127a.6.6 0 1 1-1.2 0V1.351H2.946v10.011a.6.6 0 0 1-.601.6z" transform="translate(-.293 -.094)" style="fill:#4d4d4d"/>
                <path data-name="路径 2229" d="M13.843 17.921H2.133c-.361 0-.658-.247-1.273-1.058-.318-.419-.6-.831-.607-.848l-.1-.152v-.183a1.108 1.108 0 0 1 1.1-1.113h12.72v1.2H1.542a9.208 9.208 0 0 0 .757.954h11.544z" transform="translate(-.094 -1.896)" style="fill:#4d4d4d"/>
                <path data-name="矩形 1221" d="M.707-.75h7.517A1.459 1.459 0 0 1 9.681.707v15.5a1.458 1.458 0 0 1-1.456 1.456H.707A1.459 1.459 0 0 1-.75 16.209V.707A1.459 1.459 0 0 1 .707-.75zM8.181.75H.75v15.416h7.431z" transform="translate(13.762 4.851)" style="fill:#4d4d4d"/>
                <path data-name="直线 202" d="M8.973.6H0V-.6h8.973z" transform="translate(13.597 7.381)" style="fill:#4d4d4d"/>
                <path data-name="直线 203" d="M8.508.6H0V-.6h8.508z" transform="translate(14.017 18.39)" style="fill:#4d4d4d"/>
                <path data-name="直线 204" d="M1.9.5H0A.5.5 0 0 1-.5 0 .5.5 0 0 1 0-.5h1.9a.5.5 0 0 1 .5.5.5.5 0 0 1-.5.5z" transform="translate(17.2 20.137)" style="fill:#4d4d4d"/>
                <path data-name="路径 2230" d="M9.741 6.143a1.466 1.466 0 1 0 1.466-1.466 1.466 1.466 0 0 0-1.466 1.466" transform="translate(-1.218 -.585)" style="fill:#4d4d4d"/>
                <path data-name="路径 2231" d="M12.165 7.856a1.717 1.717 0 0 1-2.211 0A2.635 2.635 0 0 0 8.546 10.1v.838c0 .347 1.125.627 2.513.627s2.511-.28 2.512-.628V10.1a2.633 2.633 0 0 0-1.407-2.246" transform="translate(-1.068 -.982)" style="fill:#4d4d4d"/>
                <path data-name="路径 2232" d="M20.821 13.714a1.126 1.126 0 1 0-1.121-1.125 1.126 1.126 0 0 0 1.125 1.125" transform="translate(-2.462 -1.433)" style="fill:#4d4d4d"/>
                <path data-name="路径 2233" d="M21.555 13.9a1.318 1.318 0 0 1-1.7 0 2.023 2.023 0 0 0-1.08 1.724v.643c0 .266.864.482 1.928.482s1.928-.215 1.929-.483v-.642a2.022 2.022 0 0 0-1.08-1.724" transform="translate(-2.347 -1.738)" style="fill:#4d4d4d"/>
            </g>
        </g>
    </g>
</svg>
